{
    "asset" : {
        "generator" : "Khronos glTF Blender I/O v3.4.50",
        "version" : "2.0"
    },
    "extensionsUsed" : [
        "KHR_materials_transmission",
        "KHR_materials_specular"
    ],
    "scene" : 0,
    "scenes" : [
        {
            "name" : "Scene",
            "nodes" : [
                0,
                1
            ]
        }
    ],
    "nodes" : [
        {
            "mesh" : 0,
            "name" : "Cube"
        },
        {
            "mesh" : 1,
            "name" : "12190_Heart_v1_L3",
            "rotation" : [
                0.033693209290504456,
                -0.009647558443248272,
                0.02011079713702202,
                0.9991833567619324
            ],
            "scale" : [
                0.05796753242611885,
                0.05796753242611885,
                0.05796753615140915
            ],
            "translation" : [
                -0.014279961585998535,
                -0.5044923424720764,
                -0.17101961374282837
            ]
        }
    ],
    "materials" : [
        {
            "doubleSided" : true,
            "name" : "Material",
            "pbrMetallicRoughness" : {
                "baseColorFactor" : [
                    0.8000000715255737,
                    0.5775802731513977,
                    0.021031305193901062,
                    1
                ],
                "metallicFactor" : 0,
                "roughnessFactor" : 0.5
            }
        },
        {
            "doubleSided" : true,
            "extensions" : {
                "KHR_materials_transmission" : {
                    "transmissionFactor" : 1
                },
                "KHR_materials_specular" : {
                    "specularColorFactor" : [
                        1,
                        1,
                        1
                    ]
                }
            },
            "name" : "Heart",
            "pbrMetallicRoughness" : {
                "baseColorFactor" : [
                    0.6980000138282776,
                    0.050999999046325684,
                    0.050999999046325684,
                    1
                ],
                "metallicFactor" : 0,
                "roughnessFactor" : 0.7654792070388794
            }
        }
    ],
    "meshes" : [
        {
            "name" : "Cube",
            "primitives" : [
                {
                    "attributes" : {
                        "POSITION" : 0,
                        "TEXCOORD_0" : 1,
                        "NORMAL" : 2
                    },
                    "indices" : 3,
                    "material" : 0
                }
            ]
        },
        {
            "name" : "12190_Heart_v1_L3",
            "primitives" : [
                {
                    "attributes" : {
                        "POSITION" : 4,
                        "TEXCOORD_0" : 5,
                        "NORMAL" : 6
                    },
                    "indices" : 7,
                    "material" : 1
                }
            ]
        }
    ],
    "accessors" : [
        {
            "bufferView" : 0,
            "componentType" : 5126,
            "count" : 138,
            "max" : [
                1,
                1,
                1
            ],
            "min" : [
                -1,
                -1,
                -1
            ],
            "type" : "VEC3"
        },
        {
            "bufferView" : 1,
            "componentType" : 5126,
            "count" : 138,
            "type" : "VEC2"
        },
        {
            "bufferView" : 2,
            "componentType" : 5126,
            "count" : 138,
            "type" : "VEC3"
        },
        {
            "bufferView" : 3,
            "componentType" : 5123,
            "count" : 288,
            "type" : "SCALAR"
        },
        {
            "bufferView" : 4,
            "componentType" : 5126,
            "count" : 5974,
            "max" : [
                10.625,
                19.961200714111328,
                4.570099830627441
            ],
            "min" : [
                -10.625,
                0.046300001442432404,
                -4.571199893951416
            ],
            "type" : "VEC3"
        },
        {
            "bufferView" : 5,
            "componentType" : 5126,
            "count" : 5974,
            "type" : "VEC2"
        },
        {
            "bufferView" : 6,
            "componentType" : 5126,
            "count" : 5974,
            "type" : "VEC3"
        },
        {
            "bufferView" : 7,
            "componentType" : 5123,
            "count" : 33792,
            "type" : "SCALAR"
        }
    ],
    "bufferViews" : [
        {
            "buffer" : 0,
            "byteLength" : 1656,
            "byteOffset" : 0,
            "target" : 34962
        },
        {
            "buffer" : 0,
            "byteLength" : 1104,
            "byteOffset" : 1656,
            "target" : 34962
        },
        {
            "buffer" : 0,
            "byteLength" : 1656,
            "byteOffset" : 2760,
            "target" : 34962
        },
        {
            "buffer" : 0,
            "byteLength" : 576,
            "byteOffset" : 4416,
            "target" : 34963
        },
        {
            "buffer" : 0,
            "byteLength" : 71688,
            "byteOffset" : 4992,
            "target" : 34962
        },
        {
            "buffer" : 0,
            "byteLength" : 47792,
            "byteOffset" : 76680,
            "target" : 34962
        },
        {
            "buffer" : 0,
            "byteLength" : 71688,
            "byteOffset" : 124472,
            "target" : 34962
        },
        {
            "buffer" : 0,
            "byteLength" : 67584,
            "byteOffset" : 196160,
            "target" : 34963
        }
    ],
    "buffers" : [
        {
            "byteLength" : 263744,
            "uri" : "heart.bin"
        }
    ]
}
