{
    "asset" : {
        "generator" : "Khronos glTF Blender I/O v3.3.32",
        "version" : "2.0"
    },
    "extensionsUsed" : [
        "KHR_materials_specular",
        "KHR_materials_ior"
    ],
    "scene" : 0,
    "scenes" : [
        {
            "name" : "Scene",
            "nodes" : [
                0
            ]
        }
    ],
    "nodes" : [
        {
            "mesh" : 0,
            "name" : "tajmahal",
            "rotation" : [
                0.7071068286895752,
                0,
                0,
                0.7071067094802856
            ]
        }
    ],
    "materials" : [
        {
            "doubleSided" : true,
            "extensions" : {
                "KHR_materials_specular" : {
                    "specularColorFactor" : [
                        0,
                        0,
                        0
                    ]
                },
                "KHR_materials_ior" : {
                    "ior" : 1.4500000476837158
                }
            },
            "name" : "Marbre_1",
            "pbrMetallicRoughness" : {
                "baseColorFactor" : [
                    0.800000011920929,
                    0.800000011920929,
                    0.800000011920929,
                    1
                ],
                "metallicFactor" : 0
            }
        },
        {
            "doubleSided" : true,
            "extensions" : {
                "KHR_materials_specular" : {
                    "specularColorFactor" : [
                        0,
                        0,
                        0
                    ]
                },
                "KHR_materials_ior" : {
                    "ior" : 1.4500000476837158
                }
            },
            "name" : "Cuivre_verdi",
            "pbrMetallicRoughness" : {
                "baseColorFactor" : [
                    0.800000011920929,
                    0.800000011920929,
                    0.800000011920929,
                    1
                ],
                "metallicFactor" : 0
            }
        },
        {
            "doubleSided" : true,
            "extensions" : {
                "KHR_materials_specular" : {
                    "specularColorFactor" : [
                        0,
                        0,
                        0
                    ]
                },
                "KHR_materials_ior" : {
                    "ior" : 1.4500000476837158
                }
            },
            "name" : "Socle_rotonde",
            "pbrMetallicRoughness" : {
                "baseColorFactor" : [
                    0.800000011920929,
                    0.800000011920929,
                    0.800000011920929,
                    1
                ],
                "metallicFactor" : 0
            }
        },
        {
            "doubleSided" : true,
            "extensions" : {
                "KHR_materials_specular" : {
                    "specularColorFactor" : [
                        0,
                        0,
                        0
                    ]
                },
                "KHR_materials_ior" : {
                    "ior" : 1.4500000476837158
                }
            },
            "name" : "frise_dome",
            "pbrMetallicRoughness" : {
                "baseColorFactor" : [
                    0.800000011920929,
                    0.800000011920929,
                    0.800000011920929,
                    1
                ],
                "metallicFactor" : 0
            }
        },
        {
            "doubleSided" : true,
            "extensions" : {
                "KHR_materials_specular" : {
                    "specularColorFactor" : [
                        0,
                        0,
                        0
                    ]
                },
                "KHR_materials_ior" : {
                    "ior" : 1.4500000476837158
                }
            },
            "name" : "Frise_socle",
            "pbrMetallicRoughness" : {
                "baseColorFactor" : [
                    0.800000011920929,
                    0.800000011920929,
                    0.800000011920929,
                    1
                ],
                "metallicFactor" : 0
            }
        },
        {
            "doubleSided" : true,
            "extensions" : {
                "KHR_materials_specular" : {
                    "specularColorFactor" : [
                        0,
                        0,
                        0
                    ]
                },
                "KHR_materials_ior" : {
                    "ior" : 1.4500000476837158
                }
            },
            "name" : "BP",
            "pbrMetallicRoughness" : {
                "baseColorFactor" : [
                    0.800000011920929,
                    0.800000011920929,
                    0.800000011920929,
                    1
                ],
                "metallicFactor" : 0
            }
        },
        {
            "doubleSided" : true,
            "extensions" : {
                "KHR_materials_specular" : {
                    "specularColorFactor" : [
                        0,
                        0,
                        0
                    ]
                },
                "KHR_materials_ior" : {
                    "ior" : 1.4500000476837158
                }
            },
            "name" : "facade_2",
            "pbrMetallicRoughness" : {
                "baseColorFactor" : [
                    0.800000011920929,
                    0.800000011920929,
                    0.800000011920929,
                    1
                ],
                "metallicFactor" : 0
            }
        }
    ],
    "meshes" : [
        {
            "name" : "tajmahal",
            "primitives" : [
                {
                    "attributes" : {
                        "POSITION" : 0,
                        "NORMAL" : 1,
                        "TEXCOORD_0" : 2
                    },
                    "indices" : 3,
                    "material" : 0
                },
                {
                    "attributes" : {
                        "POSITION" : 4,
                        "NORMAL" : 5,
                        "TEXCOORD_0" : 6
                    },
                    "indices" : 7,
                    "material" : 1
                },
                {
                    "attributes" : {
                        "POSITION" : 8,
                        "NORMAL" : 9,
                        "TEXCOORD_0" : 10
                    },
                    "indices" : 11,
                    "material" : 2
                },
                {
                    "attributes" : {
                        "POSITION" : 12,
                        "NORMAL" : 13,
                        "TEXCOORD_0" : 14
                    },
                    "indices" : 15,
                    "material" : 3
                },
                {
                    "attributes" : {
                        "POSITION" : 16,
                        "NORMAL" : 17,
                        "TEXCOORD_0" : 18
                    },
                    "indices" : 19,
                    "material" : 4
                },
                {
                    "attributes" : {
                        "POSITION" : 20,
                        "NORMAL" : 21,
                        "TEXCOORD_0" : 22
                    },
                    "indices" : 23,
                    "material" : 5
                },
                {
                    "attributes" : {
                        "POSITION" : 24,
                        "NORMAL" : 25,
                        "TEXCOORD_0" : 26
                    },
                    "indices" : 27,
                    "material" : 6
                }
            ]
        }
    ],
    "accessors" : [
        {
            "bufferView" : 0,
            "componentType" : 5126,
            "count" : 648400,
            "max" : [
                324.1951904296875,
                335.1754455566406,
                0.21542200446128845
            ],
            "min" : [
                -324.19512939453125,
                -324.1951904296875,
                -328.10235595703125
            ],
            "type" : "VEC3"
        },
        {
            "bufferView" : 1,
            "componentType" : 5126,
            "count" : 648400,
            "type" : "VEC3"
        },
        {
            "bufferView" : 2,
            "componentType" : 5126,
            "count" : 648400,
            "type" : "VEC2"
        },
        {
            "bufferView" : 3,
            "componentType" : 5125,
            "count" : 978906,
            "type" : "SCALAR"
        },
        {
            "bufferView" : 4,
            "componentType" : 5126,
            "count" : 130146,
            "max" : [
                297.7101745605469,
                297.71014404296875,
                -184.83934020996094
            ],
            "min" : [
                -297.71014404296875,
                -297.710205078125,
                -372.41168212890625
            ],
            "type" : "VEC3"
        },
        {
            "bufferView" : 5,
            "componentType" : 5126,
            "count" : 130146,
            "type" : "VEC3"
        },
        {
            "bufferView" : 6,
            "componentType" : 5126,
            "count" : 130146,
            "type" : "VEC2"
        },
        {
            "bufferView" : 7,
            "componentType" : 5125,
            "count" : 200970,
            "type" : "SCALAR"
        },
        {
            "bufferView" : 8,
            "componentType" : 5126,
            "count" : 767,
            "max" : [
                124.35650634765625,
                119.53929901123047,
                -153.1265106201172
            ],
            "min" : [
                -115.05685424804688,
                -115.02008819580078,
                -161.84518432617188
            ],
            "type" : "VEC3"
        },
        {
            "bufferView" : 9,
            "componentType" : 5126,
            "count" : 767,
            "type" : "VEC3"
        },
        {
            "bufferView" : 10,
            "componentType" : 5126,
            "count" : 767,
            "type" : "VEC2"
        },
        {
            "bufferView" : 11,
            "componentType" : 5123,
            "count" : 1296,
            "type" : "SCALAR"
        },
        {
            "bufferView" : 12,
            "componentType" : 5126,
            "count" : 5312,
            "max" : [
                74.97100067138672,
                76.55999755859375,
                -203.97543334960938
            ],
            "min" : [
                -74.97100067138672,
                -76.55999755859375,
                -310.7696228027344
            ],
            "type" : "VEC3"
        },
        {
            "bufferView" : 13,
            "componentType" : 5126,
            "count" : 5312,
            "type" : "VEC3"
        },
        {
            "bufferView" : 14,
            "componentType" : 5126,
            "count" : 5312,
            "type" : "VEC2"
        },
        {
            "bufferView" : 15,
            "componentType" : 5123,
            "count" : 7872,
            "type" : "SCALAR"
        },
        {
            "bufferView" : 16,
            "componentType" : 5126,
            "count" : 4904,
            "max" : [
                73,
                73,
                -158.53872680664062
            ],
            "min" : [
                -73,
                -73,
                -213.53872680664062
            ],
            "type" : "VEC3"
        },
        {
            "bufferView" : 17,
            "componentType" : 5126,
            "count" : 4904,
            "type" : "VEC3"
        },
        {
            "bufferView" : 18,
            "componentType" : 5126,
            "count" : 4904,
            "type" : "VEC2"
        },
        {
            "bufferView" : 19,
            "componentType" : 5123,
            "count" : 7992,
            "type" : "SCALAR"
        },
        {
            "bufferView" : 20,
            "componentType" : 5126,
            "count" : 4786,
            "max" : [
                164.09927368164062,
                163.94786071777344,
                -34.82500076293945
            ],
            "min" : [
                -157.91700744628906,
                -163.8759765625,
                -188.8251190185547
            ],
            "type" : "VEC3"
        },
        {
            "bufferView" : 21,
            "componentType" : 5126,
            "count" : 4786,
            "type" : "VEC3"
        },
        {
            "bufferView" : 22,
            "componentType" : 5126,
            "count" : 4786,
            "type" : "VEC2"
        },
        {
            "bufferView" : 23,
            "componentType" : 5123,
            "count" : 8112,
            "type" : "SCALAR"
        },
        {
            "bufferView" : 24,
            "componentType" : 5126,
            "count" : 14598,
            "max" : [
                162.14369201660156,
                157.72169494628906,
                -34.98377227783203
            ],
            "min" : [
                -152.9744110107422,
                -157.62417602539062,
                -160.41598510742188
            ],
            "type" : "VEC3"
        },
        {
            "bufferView" : 25,
            "componentType" : 5126,
            "count" : 14598,
            "type" : "VEC3"
        },
        {
            "bufferView" : 26,
            "componentType" : 5126,
            "count" : 14598,
            "type" : "VEC2"
        },
        {
            "bufferView" : 27,
            "componentType" : 5123,
            "count" : 25167,
            "type" : "SCALAR"
        }
    ],
    "bufferViews" : [
        {
            "buffer" : 0,
            "byteLength" : 7780800,
            "byteOffset" : 0,
            "target" : 34962
        },
        {
            "buffer" : 0,
            "byteLength" : 7780800,
            "byteOffset" : 7780800,
            "target" : 34962
        },
        {
            "buffer" : 0,
            "byteLength" : 5187200,
            "byteOffset" : 15561600,
            "target" : 34962
        },
        {
            "buffer" : 0,
            "byteLength" : 3915624,
            "byteOffset" : 20748800,
            "target" : 34963
        },
        {
            "buffer" : 0,
            "byteLength" : 1561752,
            "byteOffset" : 24664424,
            "target" : 34962
        },
        {
            "buffer" : 0,
            "byteLength" : 1561752,
            "byteOffset" : 26226176,
            "target" : 34962
        },
        {
            "buffer" : 0,
            "byteLength" : 1041168,
            "byteOffset" : 27787928,
            "target" : 34962
        },
        {
            "buffer" : 0,
            "byteLength" : 803880,
            "byteOffset" : 28829096,
            "target" : 34963
        },
        {
            "buffer" : 0,
            "byteLength" : 9204,
            "byteOffset" : 29632976,
            "target" : 34962
        },
        {
            "buffer" : 0,
            "byteLength" : 9204,
            "byteOffset" : 29642180,
            "target" : 34962
        },
        {
            "buffer" : 0,
            "byteLength" : 6136,
            "byteOffset" : 29651384,
            "target" : 34962
        },
        {
            "buffer" : 0,
            "byteLength" : 2592,
            "byteOffset" : 29657520,
            "target" : 34963
        },
        {
            "buffer" : 0,
            "byteLength" : 63744,
            "byteOffset" : 29660112,
            "target" : 34962
        },
        {
            "buffer" : 0,
            "byteLength" : 63744,
            "byteOffset" : 29723856,
            "target" : 34962
        },
        {
            "buffer" : 0,
            "byteLength" : 42496,
            "byteOffset" : 29787600,
            "target" : 34962
        },
        {
            "buffer" : 0,
            "byteLength" : 15744,
            "byteOffset" : 29830096,
            "target" : 34963
        },
        {
            "buffer" : 0,
            "byteLength" : 58848,
            "byteOffset" : 29845840,
            "target" : 34962
        },
        {
            "buffer" : 0,
            "byteLength" : 58848,
            "byteOffset" : 29904688,
            "target" : 34962
        },
        {
            "buffer" : 0,
            "byteLength" : 39232,
            "byteOffset" : 29963536,
            "target" : 34962
        },
        {
            "buffer" : 0,
            "byteLength" : 15984,
            "byteOffset" : 30002768,
            "target" : 34963
        },
        {
            "buffer" : 0,
            "byteLength" : 57432,
            "byteOffset" : 30018752,
            "target" : 34962
        },
        {
            "buffer" : 0,
            "byteLength" : 57432,
            "byteOffset" : 30076184,
            "target" : 34962
        },
        {
            "buffer" : 0,
            "byteLength" : 38288,
            "byteOffset" : 30133616,
            "target" : 34962
        },
        {
            "buffer" : 0,
            "byteLength" : 16224,
            "byteOffset" : 30171904,
            "target" : 34963
        },
        {
            "buffer" : 0,
            "byteLength" : 175176,
            "byteOffset" : 30188128,
            "target" : 34962
        },
        {
            "buffer" : 0,
            "byteLength" : 175176,
            "byteOffset" : 30363304,
            "target" : 34962
        },
        {
            "buffer" : 0,
            "byteLength" : 116784,
            "byteOffset" : 30538480,
            "target" : 34962
        },
        {
            "buffer" : 0,
            "byteLength" : 50334,
            "byteOffset" : 30655264,
            "target" : 34963
        }
    ],
    "buffers" : [
        {
            "byteLength" : 30705600,
            "uri" : "untitled.bin"
        }
    ]
}
